HIERARCHY
ROOT Hips
{
  OFFSET 0.0329174 101.655 1.54193
  CHANNELS 6 Xposition Yposition Zposition Zrotation Xrotation Yrotation
  JOINT Spine
  {
    OFFSET 0 10.1816 0.1315
    CHANNELS 3 Zrotation Xrotation Yrotation
    JOINT Spine1
    {
      OFFSET 0 10.0835 -1.0008
      CHANNELS 3 Zrotation Xrotation Yrotation
      JOINT Spine2
      {
        OFFSET 0 9.1 -1.3734
        CHANNELS 3 Zrotation Xrotation Yrotation
        JOINT Neck
        {
          OFFSET 0 16.6717 -2.5162
          CHANNELS 3 Zrotation Xrotation Yrotation
          JOINT Head
          {
            OFFSET 0 9.6179 1.685
            CHANNELS 3 Zrotation Xrotation Yrotation
            End Site
            {
              OFFSET 0 0 0
            }
          }
        }
        JOINT LeftShoulder
        {
          OFFSET 4.5704 10.946 -2.628
          CHANNELS 3 Zrotation Xrotation Yrotation
          JOINT LeftArm
          {
            OFFSET 10.5924 -0.5246 -2.2321
            CHANNELS 3 Zrotation Xrotation Yrotation
            JOINT LeftForeArm
            {
              OFFSET 27.8415 -0.0001 0
              CHANNELS 3 Zrotation Xrotation Yrotation
              JOINT LeftHand
              {
                OFFSET 28.3288 0 0
                CHANNELS 3 Zrotation Xrotation Yrotation
                End Site
                {
                  OFFSET 0 0 0
                }
              }
            }
          }
        }
        JOINT RightShoulder
        {
          OFFSET -4.57 10.9462 -2.628
          CHANNELS 3 Zrotation Xrotation Yrotation
          JOINT RightArm
          {
            OFFSET -10.5928 -0.5248 -2.2321
            CHANNELS 3 Zrotation Xrotation Yrotation
            JOINT RightForeArm
            {
              OFFSET -27.8415 0 0
              CHANNELS 3 Zrotation Xrotation Yrotation
              JOINT RightHand
              {
                OFFSET -28.3288 0 0.0001
                CHANNELS 3 Zrotation Xrotation Yrotation
                End Site
                {
                  OFFSET 0 0 0
                }
              }
            }
          }
        }
      }
    }
  }
  JOINT LeftUpLeg
  {
    OFFSET 8.2078 -6.7517 -1.5996
    CHANNELS 3 Zrotation Xrotation Yrotation
    JOINT LeftLeg
    {
      OFFSET 0 -44.3705 0.2846
      CHANNELS 3 Zrotation Xrotation Yrotation
      JOINT LeftFoot
      {
        OFFSET 0 -44.4279 -2.9822
        CHANNELS 3 Zrotation Xrotation Yrotation
        JOINT LeftToeBase
        {
          OFFSET 0 -8.7287 10.7106
          CHANNELS 3 Zrotation Xrotation Yrotation
          End Site
          {
            OFFSET 0 0 0
          }
        }
      }
    }
  }
  JOINT RightUpLeg
  {
    OFFSET -8.2078 -6.7517 -1.5996
    CHANNELS 3 Zrotation Xrotation Yrotation
    JOINT RightLeg
    {
      OFFSET 0 -44.3705 0.2862
      CHANNELS 3 Zrotation Xrotation Yrotation
      JOINT RightFoot
      {
        OFFSET 0 -44.4277 -2.9838
        CHANNELS 3 Zrotation Xrotation Yrotation
        JOINT RightToeBase
        {
          OFFSET 0 -8.7287 10.7106
          CHANNELS 3 Zrotation Xrotation Yrotation
          End Site
          {
            OFFSET 0 0 0
          }
        }
      }
    }
  }
}
MOTION
Frames:	8
Frame Time:	0.0333333
0.0329174 101.655 1.54193 -2.22636 0.912867 2.79647 0.956009 0.194112 0.283963 0.496898 0.39097 0.689049 0.496897 0.390971 0.689052 -1.20805 0.00530728 -0.455981 1.90747 2.64268 -3.11727 -16.2072 4.73321 -14.0277 -51.0446 -8.85205 -0.633593 -4.60886 20.7794 -30.4022 14.453 16.6741 -13.5118 17.6355 3.60745 6.63876 53.3348 -15.2788 -11.8187 10.1692 16.0136 22.3795 -7.81332 21.7624 6.37125 7.92675 -25.2172 8.98291 1.74548 63.7026 -2.44077 -1.24325 -0.957862 0.374818 0.844292 -3.35122 -1.7717 3.31034 -13.1239 -8.24303 -0.0541306 21.9583 7.84693 -4.42219 -9.64021 -0.174997 0.585933 -4.90079 -0.617413 
-0.0963714 101.78 5.08907 -1.89472 0.812284 -0.199893 0.709673 0.18416 0.5398 0.125611 0.369094 1.10417 0.125612 0.369094 1.10417 -1.14114 0.262007 -0.265325 2.01191 2.78154 -2.44185 -16.0498 4.65957 -13.7717 -51.228 -9.40867 2.79369 -4.18811 20.2343 -31.9262 13.4992 16.157 -13.8481 16.6783 3.75197 7.31956 54.3477 -13.7876 -10.9665 8.82579 16.3715 28.9595 -8.08981 17.7028 6.00257 6.21186 -29.6301 7.8324 1.65655 57.4487 -3.13199 -2.88835 -3.72702 0.376384 -0.930765 -2.9115 0.533709 2.58039 -11.5538 -8.20225 0.684885 23.3575 10.7659 -5.22906 -9.79779 -0.285225 0.404431 -5.97994 -0.389819 
-0.0803873 101.751 8.48837 -1.34312 0.819382 -3.60959 0.268026 0.142553 0.854946 -0.242632 0.283296 1.66457 -0.242632 0.283296 1.66457 -1.29447 0.107734 0.0240026 2.35806 3.50963 -1.65835 -15.935 4.57866 -13.4634 -51.0339 -9.67952 5.70621 -3.41048 20.5241 -33.8811 13.3558 16.3238 -14.1159 16.0297 3.79797 7.59512 54.2175 -11.9548 -11.6262 6.54537 17.5675 38.2949 -7.00736 13.6443 6.26824 3.7661 -32.8678 4.96417 3.30902 48.3582 -7.28097 -3.94548 -3.48545 0.390755 -1.1777 -4.54132 0.488156 1.09171 -11.4593 -8.04971 1.43082 26.8317 13.7919 -4.65426 -10.0835 -0.301319 0.236744 -7.34314 -0.166373 
0.00822897 101.288 11.8259 -0.677673 0.429014 -8.0166 -0.35926 0.157933 1.23841 -0.562771 0.309905 2.46197 -0.562771 0.309905 2.46197 -1.53377 -0.354794 -0.888405 2.52094 4.16343 -3.04612 -15.5836 4.42015 -12.9008 -50.8975 -9.97893 7.85006 -3.01268 20.5739 -34.5974 14.432 16.344 -14.6568 15.6213 3.81244 7.71539 53.8009 -10.2855 -12.6855 4.46498 18.119 47.2861 -6.91303 9.93026 7.83725 2.09708 -34.8264 2.21905 4.76515 40.5251 -18.9308 -6.58449 -0.834179 0.541314 -0.624141 -6.55304 -0.66475 -0.398349 -11.9472 -7.1759 1.59284 31.617 17.0114 -4.96436 -10.5781 -0.36496 0.368721 -8.57746 -0.26466 
0.237429 99.8694 15.2436 0.666091 -0.0392301 -14.1484 -1.14642 0.0954144 1.78919 -1.06372 0.172792 3.65127 -1.06372 0.172792 3.65127 -2.19045 -0.890415 -3.50718 2.4782 4.18653 -7.78753 -15.2652 4.31794 -12.5647 -50.3804 -10.5407 9.84264 -3.14523 19.6214 -33.6751 14.7008 15.9738 -13.8675 15.1404 3.85185 7.96045 53.971 -9.05264 -12.6914 4.04369 17.7351 52.8774 -8.29043 6.19165 10.6438 0.986049 -36.9963 0.123915 5.91836 39.2596 -34.8771 -10.5034 2.67385 0.928173 -1.76946 -5.03655 1.1276 -2.48132 -14.0922 -5.47305 0.939709 38.9108 20.6726 -6.9182 -12.3018 -0.63996 -1.64103 -10.4267 -0.75894 
0.73615 97.8985 18.3286 2.78855 -0.475818 -22.3487 -1.86909 -0.0733967 2.58938 -1.76556 -0.189023 5.24721 -1.76556 -0.189022 5.24721 -3.71499 -1.43263 -7.03117 2.20697 4.25025 -14.9399 -15.6222 4.52719 -13.3674 -49.5562 -11.2266 11.3006 -4.11322 17.9584 -30.498 14.6572 15.3164 -11.3539 14.7215 3.88685 8.18718 54.3527 -8.35706 -11.6446 4.09478 17.3603 55.3088 -11.7068 3.65961 13.9919 0.179329 -37.8663 -0.668049 7.1453 41.9198 -39.3784 -12.1171 4.07447 1.14233 2.53076 -4.13025 1.65439 -5.46977 -17.7517 -3.60156 -0.0723614 46.4885 24.6946 -10.3905 -14.124 -1.07951 -0.723336 -13.3747 -0.352405 
1.41876 96.0604 20.6315 3.93816 -0.972033 -31.1251 -2.15393 -0.0783906 2.95069 -2.227 -0.213066 5.86716 -2.227 -0.213065 5.86715 -5.08047 -2.25301 -11.0711 1.69189 4.20001 -23.6751 -16.554 4.86026 -14.4309 -49.8109 -11.8835 10.9676 -6.19532 15.8949 -23.5824 15.9705 14.877 -7.95003 14.2759 3.94887 8.55059 55.2437 -8.37182 -9.97816 4.08412 17.2627 54.1744 -18.12 3.16916 16.0472 1.82982 -36.7937 1.94319 6.53878 45.0973 -33.8114 -10.627 -0.840964 0.591121 7.00863 -8.83883 1.40576 -7.74363 -21.7617 -2.14244 -0.541431 52.5307 27.8384 -12.5948 -15.4172 -1.40558 0.325877 -14.9106 0.276563 
2.11643 94.8835 22.2441 3.91319 -0.8335 -38.0852 -2.18893 0.075533 2.0167 -2.5533 0.109056 3.96014 -2.5533 0.109056 3.96015 -4.95239 -3.30795 -14.6424 2.72786 2.54689 -31.8465 -17.6023 5.055 -14.7869 -50.5554 -12.2715 8.85276 -8.81035 13.4951 -14.7958 16.6498 14.7437 -3.35463 13.3598 4.0535 9.23262 57.8856 -8.91613 -7.5529 4.88862 16.9933 48.2665 -26.4728 5.05037 15.0864 5.03879 -36.5126 5.96575 4.58649 48.8468 -29.0012 -6.41469 -6.25122 0.137454 4.63697 -7.74106 1.61098 -8.33618 -24.817 -1.74916 -0.596404 55.9676 27.8439 -14.3066 -16.9183 -1.74739 2.29721 -13.4697 0.856887 
